<!-- Generator: Adobe Illustrator 19.2.1, SVG Export Plug-In  -->
<svg version="1.1"
	 xmlns="http://www.w3.org/2000/svg" xmlns:xlink="http://www.w3.org/1999/xlink" xmlns:a="http://ns.adobe.com/AdobeSVGViewerExtensions/3.0/"
	 x="0px" y="0px" width="337.254px" height="196.048px" viewBox="0 0 337.254 196.048"
	 style="enable-background:new 0 0 337.254 196.048;" xml:space="preserve">
<style type="text/css">
	.st0{fill:#B97310;}
	.st1{fill:#575756;}
</style>
<defs>
</defs>
<g>
	<g>
		<path class="st0" d="M98.996,65.677c-0.71-0.567-1.661-1.001-2.827-1.289c-1.149-0.286-2.592-0.43-4.291-0.43h-3.432v22.466h3.325
			V77.26h1.266c1.064,0,2.084-0.12,3.031-0.357c0.96-0.239,1.815-0.632,2.541-1.165c0.731-0.537,1.317-1.237,1.743-2.079
			c0.426-0.84,0.642-1.875,0.642-3.079c0-1.035-0.153-1.973-0.454-2.786C100.232,66.963,99.713,66.251,98.996,65.677 M97.371,72.444
			c-0.319,0.479-0.735,0.854-1.239,1.118c-0.513,0.272-1.103,0.451-1.753,0.534c-0.676,0.085-1.362,0.128-2.036,0.128h-0.571v-7.23
			h0.426c0.659,0,1.346,0.039,2.04,0.114c0.674,0.075,1.287,0.237,1.822,0.482c0.519,0.238,0.953,0.595,1.288,1.063
			c0.328,0.458,0.495,1.087,0.495,1.869C97.842,71.328,97.683,71.974,97.371,72.444"/>
		<rect x="102.714" y="63.958" class="st0" width="3.326" height="22.467"/>
		<path class="st0" d="M141.275,86.425h3.59l-10.908-23.815l-10.14,22.14v-1.419h-10.86l11.077-19.373h-14.765v3.094h9.294
			l-11.078,19.374h15.565h0.768h2.821l2.494-5.481h9.648L141.275,86.425z M133.956,70.05l3.426,7.799h-6.853L133.956,70.05z"/>
		<path class="st0" d="M156.362,86.425h4.051l-6.961-9.593c0.64-0.126,1.234-0.339,1.774-0.638c0.679-0.374,1.264-0.852,1.739-1.419
			c0.472-0.562,0.846-1.218,1.11-1.946c0.263-0.725,0.395-1.51,0.395-2.335c0-1.088-0.259-2.14-0.773-3.127
			c-0.519-0.994-1.274-1.786-2.253-2.357c-0.903-0.501-1.89-0.805-2.93-0.906c-1.013-0.097-2.019-0.146-2.986-0.146h-3.606v22.467
			h3.326v-9.252h0.675L156.362,86.425z M154.824,68.738c0.328,0.461,0.495,1.091,0.495,1.871c0,0.807-0.159,1.453-0.473,1.922
			c-0.317,0.477-0.733,0.853-1.238,1.119c-0.519,0.273-1.108,0.452-1.754,0.532c-0.666,0.086-1.35,0.129-2.035,0.129h-0.569v-7.317
			h0.425c0.659,0,1.343,0.044,2.036,0.129c0.669,0.082,1.28,0.258,1.818,0.522C154.051,67.901,154.487,68.269,154.824,68.738"/>
		<path class="st0" d="M190.66,80.943l2.494,5.482h3.592l-10.908-23.816l-10.433,22.776l-6.206-8.553
			c0.64-0.126,1.234-0.34,1.774-0.638c0.678-0.374,1.263-0.851,1.739-1.419c0.473-0.564,0.847-1.22,1.11-1.947
			c0.263-0.727,0.395-1.512,0.395-2.334c0-1.086-0.259-2.139-0.773-3.127c-0.518-0.994-1.273-1.785-2.252-2.357
			c-0.903-0.5-1.891-0.805-2.931-0.906c-1.012-0.097-2.017-0.146-2.986-0.146h-3.604v22.467h3.326v-9.252h0.675l6.436,9.252h2.821
			h1.23h2.36l2.494-5.482H190.66z M185.837,70.051l3.425,7.798h-6.851L185.837,70.051z M170.57,68.739
			c0.329,0.46,0.496,1.089,0.496,1.87c0,0.805-0.159,1.451-0.473,1.922c-0.316,0.476-0.733,0.853-1.238,1.119
			c-0.519,0.273-1.108,0.452-1.754,0.532c-0.666,0.086-1.35,0.129-2.036,0.129h-0.568v-7.317h0.425c0.658,0,1.343,0.044,2.036,0.129
			c0.669,0.082,1.28,0.258,1.818,0.522C169.799,67.902,170.234,68.27,170.57,68.739"/>
		<path class="st0" d="M196.609,80.233l0.037,0.276c0.12,0.901,0.384,1.752,0.784,2.533c0.401,0.782,0.915,1.464,1.529,2.027
			c0.612,0.563,1.332,1.012,2.136,1.334c0.805,0.32,1.681,0.483,2.605,0.483c1.019,0,1.983-0.177,2.866-0.527
			c0.883-0.352,1.66-0.846,2.313-1.468c0.655-0.623,1.175-1.384,1.549-2.261c0.371-0.874,0.56-1.835,0.56-2.857
			c0-0.941-0.143-1.783-0.427-2.503c-0.284-0.719-0.684-1.36-1.189-1.906c-0.502-0.542-1.107-1.015-1.798-1.404
			c-0.673-0.381-1.411-0.734-2.199-1.049l-1.566-0.609c-0.339-0.132-0.681-0.287-1.03-0.465c-0.333-0.171-0.64-0.377-0.911-0.613
			c-0.267-0.231-0.489-0.499-0.663-0.797c-0.165-0.279-0.249-0.609-0.249-0.978c0-0.429,0.094-0.813,0.279-1.143
			c0.192-0.34,0.449-0.636,0.765-0.882c0.321-0.25,0.687-0.443,1.087-0.576c0.399-0.134,0.812-0.202,1.223-0.202
			c0.771,0,1.414,0.16,1.913,0.477c0.51,0.32,0.96,0.803,1.338,1.436l0.154,0.258l2.683-1.609l-0.142-0.255
			c-0.623-1.105-1.45-1.966-2.458-2.562c-1.009-0.595-2.164-0.896-3.43-0.896c-0.862,0-1.703,0.136-2.503,0.406
			c-0.805,0.272-1.527,0.665-2.151,1.168c-0.63,0.508-1.14,1.136-1.514,1.865c-0.379,0.736-0.569,1.582-0.569,2.515
			c0,0.793,0.14,1.508,0.417,2.125c0.276,0.611,0.648,1.153,1.105,1.61c0.452,0.453,0.987,0.851,1.591,1.182
			c0.588,0.323,1.2,0.625,1.824,0.898l1.511,0.64c0.457,0.19,0.911,0.405,1.35,0.64c0.435,0.231,0.826,0.501,1.159,0.799
			c0.328,0.292,0.592,0.642,0.787,1.039c0.191,0.392,0.289,0.86,0.289,1.391c0,0.54-0.097,1.054-0.284,1.528
			c-0.189,0.476-0.453,0.899-0.782,1.255c-0.332,0.358-0.73,0.648-1.184,0.861c-0.452,0.212-0.951,0.32-1.482,0.32
			c-0.54,0-1.059-0.096-1.544-0.284c-0.484-0.189-0.91-0.456-1.265-0.794c-0.355-0.335-0.632-0.744-0.828-1.218
			c-0.198-0.473-0.297-0.995-0.297-1.552v-0.37L196.609,80.233z"/>
		<path class="st0" d="M143.771,95.706c-1.146-0.918-2.492-1.612-4.001-2.067c-1.501-0.452-3.126-0.682-4.829-0.682h-4.824v22.468
			h4.737c1.741,0,3.398-0.233,4.93-0.694c1.54-0.465,2.898-1.171,4.032-2.1c1.141-0.933,2.052-2.13,2.708-3.559
			c0.652-1.426,0.983-3.106,0.983-4.997c0-1.853-0.337-3.498-1.001-4.886C145.84,97.8,144.919,96.629,143.771,95.706
			 M133.443,96.052h0.657c1.36,0,2.676,0.14,3.907,0.414c1.215,0.271,2.29,0.729,3.2,1.36c0.902,0.624,1.63,1.465,2.166,2.5
			c0.536,1.036,0.809,2.335,0.809,3.865c0,1.53-0.272,2.83-0.809,3.864c-0.535,1.034-1.264,1.876-2.166,2.502
			c-0.91,0.631-1.986,1.089-3.2,1.358c-1.231,0.275-2.547,0.414-3.907,0.414h-0.657V96.052z"/>
		<rect x="149.546" y="92.957" class="st0" width="3.326" height="22.468"/>
		<path class="st0" d="M167.613,106.898h5.635c-0.073,0.728-0.287,1.426-0.641,2.081c-0.406,0.757-0.939,1.427-1.585,1.988
			c-0.649,0.567-1.388,1.018-2.191,1.34c-0.8,0.322-1.615,0.486-2.426,0.486c-1.128,0-2.2-0.244-3.188-0.724
			c-0.995-0.483-1.873-1.133-2.608-1.935c-0.734-0.801-1.327-1.732-1.756-2.769c-0.427-1.028-0.643-2.106-0.643-3.205
			c0-1.173,0.221-2.295,0.657-3.335c0.437-1.041,1.04-1.961,1.795-2.734c0.753-0.77,1.651-1.387,2.675-1.834
			c1.018-0.444,2.13-0.671,3.301-0.671c1.28,0,2.525,0.32,3.701,0.951c1.181,0.631,2.168,1.471,2.932,2.496l0.202,0.271l2.359-2.251
			l-0.173-0.215c-1.109-1.384-2.487-2.466-4.096-3.215c-1.608-0.75-3.304-1.13-5.041-1.13c-1.601,0-3.131,0.31-4.543,0.923
			c-1.411,0.612-2.657,1.462-3.704,2.53c-1.047,1.065-1.883,2.327-2.483,3.747c-0.604,1.424-0.908,2.956-0.908,4.555
			c0,1.54,0.299,3.032,0.892,4.438c0.591,1.398,1.406,2.647,2.424,3.715c1.017,1.065,2.227,1.924,3.602,2.546
			c1.375,0.623,2.866,0.938,4.43,0.938c1.562,0,3.01-0.28,4.311-0.836c1.296-0.553,2.431-1.332,3.376-2.313
			c0.938-0.98,1.676-2.146,2.192-3.463c0.515-1.317,0.774-2.765,0.774-4.301v-1.17h-9.271V106.898z"/>
		<rect x="178.895" y="92.957" class="st0" width="3.325" height="22.468"/>
		<polygon class="st0" points="197.387,92.958 183.679,92.958 183.679,96.052 188.871,96.052 188.871,115.425 192.197,115.425 
			192.197,96.052 197.387,96.052 		"/>
		<path class="st0" d="M194.126,115.424h3.59l2.495-5.48h9.646l2.494,5.48h3.591l-10.907-23.814L194.126,115.424z M201.608,106.85
			l3.427-7.8l3.426,7.8H201.608z"/>
		<polygon class="st0" points="220.327,92.958 217,92.958 217,115.425 226.968,115.425 226.968,112.331 220.327,112.331 		"/>
		<polygon class="st0" points="228.164,115.425 240.51,115.425 240.51,112.33 231.491,112.33 231.491,104.664 240.248,104.664 
			240.248,101.57 231.491,101.57 231.491,96.052 240.51,96.052 240.51,92.957 228.164,92.957 		"/>
		<path class="st0" d="M256.033,106.271c-0.283-0.72-0.685-1.36-1.189-1.906c-0.502-0.542-1.107-1.015-1.798-1.405
			c-0.673-0.38-1.411-0.732-2.199-1.048l-1.566-0.609c-0.339-0.132-0.682-0.286-1.029-0.466c-0.333-0.17-0.641-0.377-0.912-0.611
			c-0.267-0.231-0.49-0.499-0.663-0.798c-0.165-0.278-0.249-0.608-0.249-0.978c0-0.429,0.094-0.813,0.279-1.144
			c0.192-0.34,0.449-0.637,0.765-0.882c0.322-0.25,0.686-0.442,1.086-0.575c0.4-0.135,0.813-0.202,1.224-0.202
			c0.771,0,1.414,0.159,1.913,0.477c0.51,0.32,0.96,0.803,1.338,1.437l0.154,0.258l2.683-1.61l-0.143-0.254
			c-0.622-1.104-1.449-1.966-2.458-2.562c-1.008-0.596-2.163-0.896-3.429-0.896c-0.862,0-1.703,0.136-2.502,0.406
			c-0.806,0.271-1.529,0.665-2.153,1.168c-0.629,0.508-1.139,1.136-1.513,1.865c-0.378,0.734-0.57,1.582-0.57,2.515
			c0,0.793,0.141,1.508,0.418,2.125c0.276,0.611,0.648,1.153,1.107,1.61c0.451,0.452,0.986,0.851,1.59,1.182
			c0.588,0.323,1.201,0.625,1.824,0.897l1.511,0.641c0.457,0.189,0.912,0.405,1.351,0.639c0.436,0.232,0.825,0.501,1.159,0.8
			c0.328,0.292,0.592,0.643,0.786,1.039c0.191,0.393,0.29,0.86,0.29,1.392c0,0.54-0.097,1.054-0.285,1.527
			c-0.188,0.477-0.452,0.899-0.781,1.255c-0.332,0.358-0.73,0.648-1.184,0.86c-0.453,0.212-0.952,0.321-1.482,0.321
			c-0.54,0-1.059-0.096-1.544-0.284c-0.483-0.189-0.91-0.456-1.265-0.794c-0.354-0.335-0.632-0.744-0.829-1.218
			c-0.197-0.474-0.296-0.995-0.296-1.553v-0.369l-3.39,0.714l0.037,0.275c0.12,0.901,0.385,1.752,0.784,2.532
			c0.401,0.783,0.915,1.465,1.528,2.028c0.614,0.563,1.333,1.012,2.137,1.334c0.805,0.321,1.681,0.483,2.605,0.483
			c1.019,0,1.983-0.178,2.866-0.527c0.883-0.352,1.66-0.846,2.314-1.468c0.655-0.623,1.175-1.385,1.549-2.262
			c0.371-0.874,0.561-1.836,0.561-2.856C256.46,107.832,256.316,106.99,256.033,106.271"/>
	</g>
	<g>
		<path class="st0" d="M290.912,157.932v5.786h-2.149V149.47h2.436c1.193,0,2.095,0.083,2.704,0.249
			c0.614,0.166,1.156,0.48,1.624,0.942c0.818,0.799,1.227,1.808,1.227,3.026c0,1.305-0.436,2.338-1.31,3.101
			c-0.874,0.762-2.052,1.144-3.535,1.144H290.912z M290.912,155.94h0.804c1.974,0,2.962-0.761,2.962-2.279
			c0-1.471-1.018-2.206-3.055-2.206h-0.711V155.94z"/>
		<path class="st0" d="M301.118,149.471v8.582c0,1.224,0.2,2.118,0.6,2.686c0.596,0.817,1.436,1.227,2.519,1.227
			c1.089,0,1.933-0.409,2.528-1.227c0.399-0.548,0.6-1.444,0.6-2.686v-8.582h2.15v9.173c0,1.501-0.467,2.736-1.402,3.709
			c-1.053,1.083-2.345,1.624-3.876,1.624c-1.532,0-2.821-0.541-3.867-1.624c-0.935-0.973-1.401-2.208-1.401-3.709v-9.173H301.118z"
			/>
		<path class="st0" d="M323.459,150.236v2.547c-1.243-1.039-2.527-1.561-3.856-1.561c-1.464,0-2.698,0.527-3.701,1.578
			c-1.008,1.046-1.513,2.326-1.513,3.839c0,1.495,0.505,2.756,1.513,3.784c1.009,1.027,2.246,1.541,3.71,1.541
			c0.756,0,1.4-0.124,1.929-0.37c0.295-0.123,0.602-0.289,0.918-0.498c0.316-0.209,0.65-0.461,1.001-0.757v2.594
			c-1.229,0.696-2.521,1.042-3.876,1.042c-2.036,0-3.773-0.71-5.214-2.132c-1.433-1.432-2.148-3.161-2.148-5.185
			c0-1.815,0.599-3.434,1.799-4.855c1.476-1.739,3.386-2.61,5.729-2.61C321.029,149.193,322.266,149.541,323.459,150.236"/>
		<polygon class="st0" points="326.891,149.471 330.832,159.345 334.829,149.471 337.181,149.471 330.787,164.788 324.539,149.471 
					"/>
	</g>
	<rect x="149.194" y="120.818" class="st0" width="3.455" height="23.035"/>
	<polygon class="st0" points="156.267,119.136 156.267,143.854 159.722,143.854 159.722,127.62 176.905,145.593 176.905,120.818 
		173.45,120.818 173.45,137.138 	"/>
	<polygon class="st0" points="178.564,124.099 183.884,124.099 183.884,143.854 187.338,143.854 187.338,124.099 192.716,124.099 
		192.716,120.818 178.564,120.818 	"/>
	<polygon class="st0" points="194.227,143.854 206.654,143.854 206.654,140.574 197.683,140.574 197.683,132.924 206.392,132.924 
		206.392,129.645 197.683,129.645 197.683,124.099 206.654,124.099 206.654,120.818 194.227,120.818 	"/>
	<path class="st0" d="M223.622,143.26l-6.672-9.398c1.432-0.267,2.612-0.912,3.517-1.923c1.074-1.199,1.618-2.728,1.618-4.542
		c0-1.264-0.235-2.359-0.698-3.254c-0.474-0.915-1.163-1.62-2.049-2.097c-0.842-0.451-1.745-0.772-2.683-0.955
		c-0.924-0.182-1.979-0.273-3.136-0.273h-3.686v23.035h3.455v-9.456l6.514,9.456h3.559h0.683h3.104l2.659-6.254h8.745l2.601,6.254
		h3.811l-10.659-24.841L223.622,143.26z M213.548,131.018h-0.26v-6.919h0.23c0.661,0,1.233,0.019,1.697,0.056
		c0.445,0.038,0.918,0.13,1.404,0.274c0.451,0.134,0.81,0.318,1.063,0.548c0.257,0.232,0.48,0.568,0.666,0.996
		c0.186,0.433,0.28,0.971,0.28,1.6c0,0.729-0.132,1.336-0.391,1.804c-0.252,0.454-0.607,0.781-1.086,1
		c-0.532,0.244-1.079,0.413-1.626,0.503C214.966,130.971,214.3,131.018,213.548,131.018z M231.225,134.32l3.008-7.041l2.938,7.041
		H231.225z"/>
	<path class="st0" d="M256.827,120.439c-3.278,0-6.126,1.186-8.463,3.522s-3.521,5.184-3.521,8.463c0,3.243,1.196,6.053,3.556,8.352
		c2.355,2.295,5.191,3.458,8.429,3.458c2.492,0,4.804-0.76,6.869-2.258l0.206-0.149v-4.503l-0.854,0.854
		c-1.842,1.842-3.964,2.776-6.31,2.776c-2.303,0-4.305-0.863-5.952-2.565c-1.652-1.708-2.49-3.744-2.49-6.053
		c0-2.31,0.833-4.346,2.477-6.053c1.659-1.726,3.592-2.564,5.907-2.564c2.474,0,4.555,0.906,6.362,2.77l0.859,0.886v-4.523
		l-0.2-0.149C261.692,121.2,259.38,120.439,256.827,120.439z"/>
	<polygon class="st0" points="265.124,124.099 270.443,124.099 270.443,143.854 273.897,143.854 273.897,124.099 279.275,124.099 
		279.275,120.818 265.124,120.818 	"/>
	<rect x="280.846" y="120.818" class="st0" width="3.455" height="23.035"/>
	<polygon class="st0" points="301.105,120.818 295.169,136.694 289.232,120.818 285.5,120.818 295.169,146.067 304.838,120.818 	"/>
	<path class="st0" d="M300.773,143.854h3.786l2.659-6.254h8.745l2.601,6.254h3.811l-10.659-24.841L300.773,143.854z M308.638,134.32
		l3.008-7.041l2.938,7.041H308.638z"/>
	<path class="st1" d="M182.834,151.922c-0.002,1.156-0.807,2.154-1.934,2.402L64.129,174.746v-7.361l-22.396,3.185v8.092
		l-22.202,3.883c-2.83,0.623-5.51-1.532-5.51-4.43V18.104c0-2.897,2.679-5.053,5.509-4.431l161.536,34.639
		c1.132,0.249,1.937,1.253,1.935,2.412l-0.022,13.322l2.858-6.24l3.604,7.868V48.762c0-3.149-2.182-5.877-5.253-6.569L8.213,0.167
		C4.004-0.781,0,2.421,0,6.737v182.575c0,4.316,4.004,7.518,8.213,6.569l175.974-35.589c3.071-0.691,5.253-3.42,5.253-6.568v-7.826
		h-6.597L182.834,151.922z"/>
	<path class="st0" d="M336.824,134.489c-0.291-0.731-0.739-1.37-1.33-1.897c-0.558-0.497-1.13-0.919-1.701-1.256
		c-0.559-0.329-1.274-0.688-2.128-1.065l-1.459-0.642c-0.51-0.226-0.9-0.414-1.175-0.566c-0.271-0.148-0.602-0.358-0.994-0.63
		c-0.341-0.235-0.593-0.505-0.748-0.801c-0.158-0.299-0.234-0.624-0.234-0.994c0-0.853,0.299-1.533,0.914-2.082
		c0.632-0.563,1.363-0.837,2.238-0.837c1.438,0,2.538,0.701,3.366,2.145l0.262,0.455l2.789-1.789l-0.219-0.407
		c-0.625-1.166-1.483-2.082-2.551-2.722c-1.069-0.638-2.277-0.962-3.589-0.962c-1.81,0-3.385,0.566-4.682,1.685
		c-1.316,1.138-1.984,2.627-1.984,4.427c0,1.554,0.462,2.804,1.374,3.714c0.857,0.857,2.107,1.659,3.72,2.386l1.338,0.581
		c0.557,0.25,0.959,0.437,1.208,0.562c0.236,0.118,0.574,0.32,1.004,0.6c0.402,0.263,0.692,0.502,0.863,0.714
		s0.333,0.508,0.479,0.876c0.142,0.36,0.214,0.757,0.214,1.177c0,1.07-0.392,1.949-1.197,2.685
		c-0.817,0.748-1.743,1.111-2.832,1.111c-1.024,0-1.877-0.342-2.605-1.044c-0.742-0.715-1.171-1.57-1.313-2.614l-0.076-0.57
		l-3.398,0.954l0.093,0.456c0.373,1.819,1.23,3.306,2.55,4.416c1.323,1.116,2.941,1.682,4.808,1.682c2.056,0,3.825-0.712,5.26-2.115
		c1.438-1.407,2.167-3.155,2.167-5.194C337.254,136.028,337.109,135.209,336.824,134.489z"/>
</g>
</svg>